<svg width="24" height="24" viewBox="0 0 24 24" fill="none" xmlns="http://www.w3.org/2000/svg">
<path d="M18.375 23.9985H5.625C2.52338 23.9985 0 21.4751 0 18.3735V10.4858C0 8.74244 0.827578 7.07045 2.21372 6.01319L8.58872 1.15089C10.5973 -0.381027 13.4027 -0.381027 15.4113 1.15089L17.4375 2.69496V1.49847C17.487 0.254598 19.2634 0.255535 19.3125 1.49847V4.58805C19.3125 4.94444 19.1104 5.26999 18.791 5.42819C18.4716 5.58635 18.0902 5.54969 17.8067 5.33374L14.2745 2.64203C12.9352 1.62053 11.0647 1.62053 9.72577 2.6418L3.35077 7.50409C2.42672 8.20886 1.875 9.3235 1.875 10.4858V18.3735C1.875 20.4412 3.55725 22.1235 5.625 22.1235H18.375C20.4427 22.1235 22.125 20.4412 22.125 18.3735V10.4858C22.125 9.30925 21.5795 8.19081 20.6658 7.49388C20.2541 7.17986 20.175 6.59158 20.489 6.17992C20.803 5.76822 21.3913 5.68905 21.8029 6.00306C23.1787 7.05231 24 8.72809 24 10.4858V18.3735C24 21.4751 21.4766 23.9985 18.375 23.9985ZM10.125 10.8266C9.4778 10.8266 8.95312 11.3513 8.95312 11.9985C9.01505 13.5533 11.2355 13.5521 11.2969 11.9985C11.2969 11.3512 10.7722 10.8266 10.125 10.8266ZM15.0469 11.9984C14.985 13.5533 12.7645 13.5521 12.7031 11.9984C12.765 10.4436 14.9855 10.4448 15.0469 11.9984ZM11.2969 15.7484C11.235 17.3033 9.01448 17.3021 8.95312 15.7484C9.01505 14.1936 11.2355 14.1948 11.2969 15.7484ZM15.0469 15.7484C14.985 17.3033 12.7645 17.3021 12.7031 15.7484C12.765 14.1936 14.9855 14.1948 15.0469 15.7484Z" fill="#3E3E46"/>
</svg>
