<svg width="20" height="24" viewBox="0 0 20 24" fill="none" xmlns="http://www.w3.org/2000/svg">
<path d="M19.4679 23.2969H17.2289C17.6158 22.8944 17.8583 22.3519 17.8673 21.7552C17.8702 21.5611 17.7152 21.4014 17.521 21.3985C17.5192 21.3984 17.5175 21.3984 17.5157 21.3984C17.3239 21.3984 17.1671 21.5524 17.1642 21.7448C17.1549 22.3693 16.776 22.9084 16.2395 23.1545L12.9503 19.8653L15.1399 18.6034H15.5892C16.427 18.6034 17.1332 19.2847 17.1634 20.122C17.1704 20.3161 17.3351 20.4676 17.5274 20.4607C17.7215 20.4537 17.8731 20.2907 17.8661 20.0967C17.8448 19.5073 17.598 18.9554 17.1713 18.5424C16.8966 18.2767 16.5666 18.0884 16.2091 17.9872L17.6689 17.1458C17.9344 16.9928 18.0368 16.6681 17.9074 16.3905L17.6189 15.7719C17.5497 15.6234 17.4203 15.5099 17.264 15.4606C17.1135 15.4132 16.9493 15.4294 16.8106 15.504L16.599 15.0502C16.5323 14.9073 16.4078 14.7981 16.2574 14.7506C16.1071 14.7032 15.9423 14.7212 15.8057 14.8001L15.3905 15.0398V11.9369C15.3905 10.4835 14.2081 9.30112 12.7548 9.30112H11.7576V8.5553C12.2007 8.29838 12.5589 7.91062 12.7788 7.4453H13.0682C13.7671 7.4453 14.3358 6.87666 14.3358 6.1777V5.88469C14.3358 5.54569 14.2017 5.23758 13.9842 5.00991V1.94531C13.9842 0.872672 13.1115 0 12.0389 0H7.96077C6.88813 0 6.01545 0.872672 6.01545 1.94531V5.00995C5.79791 5.23763 5.66389 5.54573 5.66389 5.88473V6.17775C5.66389 6.8767 6.23253 7.44534 6.93144 7.44534H7.22084C7.44078 7.91067 7.79891 8.29842 8.24202 8.55534V9.30117H7.24508C5.79172 9.30117 4.60935 10.4836 4.60935 11.9369V14.9899L4.18203 14.7444C4.04549 14.666 3.88096 14.6482 3.73091 14.6957C3.58072 14.7432 3.45641 14.8523 3.3898 14.9951L3.18182 15.4412C3.0418 15.364 2.87507 15.3468 2.72235 15.3953C2.56635 15.4446 2.43721 15.558 2.36811 15.7062L2.09239 16.2974C1.96316 16.5746 2.06539 16.899 2.3301 17.0522L3.87172 17.9437C2.82617 18.1503 2.03521 19.0739 2.03521 20.1791V21.721C2.03521 22.332 2.27736 22.8872 2.67017 23.2968H0.531738C0.337535 23.2968 0.180176 23.4542 0.180176 23.6484C0.180176 23.8425 0.337535 24 0.531738 24H19.468C19.6622 24 19.8195 23.8425 19.8195 23.6484C19.8195 23.4542 19.6621 23.2969 19.4679 23.2969ZM13.6326 5.88473V6.17775C13.6326 6.489 13.3795 6.74222 13.0682 6.74222H12.9917C13.0096 6.62138 13.0191 6.49786 13.0191 6.37209V5.32031H13.0682C13.3795 5.32031 13.6326 5.57348 13.6326 5.88473ZM13.0191 4.61719V4.24219H13.2811V4.63542C13.2118 4.62366 13.1408 4.61719 13.0682 4.61719H13.0191ZM6.71858 4.24219H6.98052V4.61719H6.93144C6.85888 4.61719 6.78786 4.62366 6.71858 4.63542V4.24219ZM6.93144 6.74217C6.62019 6.74217 6.36702 6.48895 6.36702 6.1777V5.88469C6.36702 5.57344 6.62019 5.32027 6.93144 5.32027H6.98052V6.37205C6.98052 6.49781 6.99008 6.62133 7.00794 6.74217H6.93144ZM7.68364 6.37209V4.24219H10.2811C10.4753 4.24219 10.6326 4.08478 10.6326 3.89062C10.6326 3.69647 10.4753 3.53906 10.2811 3.53906H6.71858V1.94531C6.71858 1.26038 7.27583 0.703125 7.96077 0.703125H12.0389C12.7238 0.703125 13.2811 1.26038 13.2811 1.94531V3.53906H11.9217C11.7275 3.53906 11.5701 3.69647 11.5701 3.89062C11.5701 4.08478 11.7275 4.24219 11.9217 4.24219H12.316V6.37209C12.316 7.37527 11.4999 8.19141 10.4967 8.19141H9.50295C8.49978 8.19141 7.68364 7.37527 7.68364 6.37209ZM11.0545 8.83158V9.30112H10.3514V8.89448H10.4967C10.6884 8.89453 10.8749 8.87231 11.0545 8.83158ZM10.2576 10.0043V12.4418H9.74202V10.0043H10.2576ZM9.64827 8.89453V9.30117H8.94514V8.83162C9.12472 8.87236 9.31123 8.89458 9.50295 8.89458H9.64827V8.89453ZM3.96303 15.4295L6.90744 17.121C7.07577 17.2177 7.29069 17.1596 7.38739 16.9913C7.48409 16.8229 7.42602 16.608 7.25769 16.5113L6.71858 16.2016V13.2656C6.71858 13.0715 6.56122 12.9141 6.36702 12.9141C6.17281 12.9141 6.01545 13.0715 6.01545 13.2656V15.7977L5.31247 15.3939V11.937C5.31247 10.8713 6.17942 10.0043 7.24508 10.0043H9.03889V12.6528C9.03889 12.9242 9.25967 13.145 9.53108 13.145H10.4686C10.74 13.145 10.9608 12.9242 10.9608 12.6528V10.0043H12.7546C13.8202 10.0043 14.6872 10.8713 14.6872 11.937V15.4459L13.9842 15.8517V13.2656C13.9842 13.0715 13.8268 12.9141 13.6326 12.9141C13.4384 12.9141 13.2811 13.0715 13.2811 13.2656V16.2577L10.0567 18.1193L8.68039 17.3286C8.51197 17.2319 8.29709 17.2899 8.20044 17.4583C8.10373 17.6267 8.16181 17.8416 8.33014 17.9383L9.77595 18.7688C9.94967 18.8686 10.1655 18.8684 10.339 18.7682L16.0257 15.485L16.1988 15.8562L10.0675 19.3961L3.79396 15.7922L3.96303 15.4295ZM2.77499 16.4973L2.95138 16.1191L9.77567 20.0394C9.95623 20.1431 10.1803 20.1428 10.3605 20.0388L17.0355 16.185L17.2246 16.5903L10.0681 20.7149L2.77499 16.4973ZM2.73833 21.7211V20.1792C2.73833 19.3103 3.44525 18.6034 4.31413 18.6034H5.01238L7.10253 19.8121L3.73039 23.1843C3.14975 22.9518 2.73833 22.3837 2.73833 21.7211ZM4.61216 23.2969L7.73253 20.1765L8.36258 20.5409L5.60661 23.2969H4.61216ZM6.60102 23.2969L8.99267 20.9052L9.77473 21.3575C9.8652 21.4098 9.96664 21.4359 10.0681 21.4359C10.1692 21.4359 10.2704 21.4099 10.3607 21.3578L11.0579 20.956L13.3987 23.2969H6.60102ZM14.393 23.2969L11.6887 20.5925L12.3195 20.2289L15.3875 23.2969H14.393Z" fill="#3E3E46"/>
</svg>
