<svg width="24" height="22" viewBox="0 0 24 22" fill="none" xmlns="http://www.w3.org/2000/svg">
<path d="M23.9774 20.5169L23.3478 17.2179C23.3474 17.2159 23.347 17.2138 23.3466 17.2118C23.2382 16.6936 22.7751 16.3175 22.2454 16.3175H21.6614V11.4094C21.6614 9.84879 21.1375 8.33941 20.1862 7.15934C19.5088 6.31893 18.755 5.79753 17.9375 5.60139C18.2597 5.23284 18.5056 4.78791 18.6424 4.28458C18.795 3.75635 19.0079 3.1367 19.0143 2.58348C19.0237 1.78124 18.5524 1.03387 17.8079 0.703761C17.7148 0.662491 16.1237 0.221748 16.1237 0.221748C15.0527 -0.0695871 13.9209 0.584704 13.6309 1.65179L13.0236 3.9731C12.6344 5.40309 13.7368 6.60598 15.1176 6.73295V10.0354L15.0702 10.1621L12.2697 9.11478C11.9687 9.00207 11.6176 9.10461 11.4251 9.36164C11.1396 9.26692 10.8078 9.20517 10.5616 9.0288C10.3318 8.8641 10.1331 8.61808 9.92852 8.42199C9.78127 8.28087 9.57102 8.23724 9.37973 8.30807C9.18849 8.37893 9.05738 8.549 9.03757 8.75201C8.97922 9.35026 8.91075 9.93904 9.39865 10.3975L10.759 11.6758C10.7926 11.7076 10.8338 11.7329 10.8771 11.7492L15.1148 13.3341C15.094 13.5085 14.9454 13.6442 14.7654 13.6442H10.7754C9.67629 13.6442 8.78205 14.5385 8.78205 15.6376V17.5881C8.78205 18.687 9.67624 19.581 10.7754 19.581H17.6025L18.0987 20.159C18.2188 20.2989 18.3934 20.3791 18.5778 20.3791H19.3512C19.8303 20.3791 20.1072 19.8654 19.9128 19.4498C20.9342 19.107 21.6613 18.1311 21.6613 17.0249V17.0235H22.2453C22.4418 17.0235 22.6137 17.1623 22.6551 17.3539L23.2845 20.6519C23.3324 20.9096 23.1475 21.1636 22.8749 21.1636H1.1248C0.854786 21.1636 0.664391 20.9094 0.71526 20.6519L1.34466 17.3539C1.38597 17.1623 1.55788 17.0235 1.75439 17.0235H7.45582C7.65073 17.0235 7.80875 16.8655 7.80875 16.6705C7.80875 16.4756 7.65073 16.3176 7.45582 16.3176H1.75453C1.2249 16.3176 0.761753 16.6937 0.653379 17.2119C0.652955 17.2139 0.652532 17.216 0.652156 17.218L0.0225693 20.5167C-0.119028 21.2047 0.42449 21.8694 1.12495 21.8694H22.8751C23.5755 21.8694 24.1189 21.2051 23.9774 20.5169ZM14.9331 1.03152C15.24 0.85571 15.5971 0.810017 15.9385 0.902909L17.3312 1.2814C18.036 1.47306 18.4536 2.20222 18.262 2.90691C18.2414 2.98239 18.2236 3.05872 18.2044 3.13458L14.2764 1.97338C14.3703 1.58012 14.5736 1.23725 14.9331 1.03152ZM14.7297 5.94821C13.9601 5.73932 13.496 4.92513 13.7055 4.15507L14.0976 2.65657L18.0317 3.81955L17.9603 4.10251C17.7755 4.77948 17.3384 5.34422 16.7292 5.69302C16.1206 6.04134 15.413 6.13258 14.7363 5.95014C14.7341 5.94948 14.7319 5.94882 14.7297 5.94821ZM9.68706 9.36451L9.70457 9.18508C10.155 9.61684 10.5617 9.81876 11.1493 10.0138L10.856 10.7982L9.88207 9.88309C9.74118 9.75072 9.66833 9.55688 9.68706 9.36451ZM9.48806 17.5881V15.6376C9.48806 14.9276 10.0656 14.3501 10.7756 14.3501H12.7543V16.3173H12C11.8051 16.3173 11.6471 16.4753 11.6471 16.6703C11.6471 16.8652 11.8051 17.0232 12 17.0232H16.6159C16.6356 17.0232 16.6516 17.0392 16.6516 17.0589V18.8749L10.7756 18.8752C10.0656 18.8751 9.48806 18.2977 9.48806 17.5881ZM18.6121 19.6732L18.0324 18.998C17.8711 18.8101 17.5703 18.875 17.3574 18.875V17.7094H18.0885C18.3259 17.7094 18.5349 17.8524 18.6209 18.0736L19.2424 19.6731H18.6121V19.6732ZM20.9555 17.0248C20.9555 17.8377 20.4135 18.5532 19.6569 18.7909L19.2788 17.818C19.0865 17.3232 18.6193 17.0035 18.0885 17.0035H17.3546C17.3261 16.6204 17.0061 16.3173 16.6159 16.3173H13.4602V14.35H14.7655C15.2825 14.35 15.7138 13.9771 15.8052 13.4862C15.8114 13.4862 15.8175 13.4866 15.8235 13.4866C16.0594 13.4866 16.2947 13.436 16.5158 13.3352C16.9222 13.1501 17.2322 12.8178 17.3885 12.3995L17.8568 11.1474C17.9251 10.9649 17.8324 10.7615 17.6499 10.6933C17.4676 10.6249 17.264 10.7176 17.1957 10.9002L16.7275 12.1523C16.6371 12.394 16.458 12.5859 16.2232 12.6929C15.9884 12.7998 15.7261 12.8089 15.4843 12.7186L11.455 11.2116L11.9857 9.7926C11.9933 9.77693 12.0056 9.77133 12.0224 9.77589L15.1535 10.9469C15.336 11.0153 15.5394 10.9225 15.6076 10.74L16.5233 8.29174C16.7586 7.66267 17.6731 7.64761 17.949 8.25301C18.0328 8.4371 18.04 8.64283 17.9691 8.83238L17.7784 9.34235C17.7101 9.52493 17.8028 9.72827 17.9853 9.7965C18.1678 9.86493 18.3712 9.77213 18.4395 9.58959L18.6302 9.07967C18.7671 8.71356 18.7533 8.31602 18.5913 7.96036C18.4292 7.60469 18.1384 7.33345 17.7724 7.19656C16.9553 6.88913 16.0993 7.33562 15.8234 8.14826V6.7225C16.324 6.66114 16.8009 6.48669 17.2195 6.21917C18.0932 6.23131 18.9062 6.69634 19.6365 7.60243C20.4871 8.65752 20.9555 10.0095 20.9555 11.4095V17.0248H20.9555Z" fill="#3E3E46"/>
</svg>
