<svg width="24" height="24" viewBox="0 0 24 24" fill="none" xmlns="http://www.w3.org/2000/svg">
<path d="M23.246 8.88745C22.357 8.14148 21.0268 8.2582 20.2822 9.14554L18.2808 11.5138V4.64644C18.2808 4.07086 18.0415 3.51347 17.6242 3.11714L14.9534 0.580031C14.5597 0.206016 14.0438 0 13.5007 0H2.10933C0.946266 0 0 0.946265 0 2.10933V21.8902C0 23.0532 0.946266 23.9995 2.10933 23.9995H16.1715C17.3346 23.9995 18.2809 23.0532 18.2809 21.8902V18.0482C18.3673 17.9459 23.4898 11.8782 23.5059 11.8591C24.2553 10.9661 24.1392 9.63689 23.246 8.88745ZM14.0622 1.67297C16.8753 4.34522 16.6755 4.14989 16.7283 4.2187H14.0622V1.67297ZM16.8746 21.8902C16.8746 22.2779 16.5592 22.5933 16.1715 22.5933H2.10933C1.72163 22.5933 1.4062 22.2779 1.4062 21.8902V2.10933C1.4062 1.72162 1.72163 1.4062 2.10933 1.4062H12.656V4.92173C12.656 5.31005 12.9708 5.62486 13.3591 5.62486H16.8746V13.1778C16.5726 13.5352 14.1475 16.4048 13.8854 16.715C13.676 16.9645 13.5253 17.2639 13.4497 17.5807L12.7962 20.3162C12.7344 20.5752 12.8242 20.847 13.0282 21.0182C13.2323 21.1896 13.5156 21.2305 13.7597 21.1247L16.3402 20.0062C16.5339 19.9222 16.7146 19.8081 16.8746 19.6709V21.8902ZM15.2023 17.3354L16.2794 18.2392L16.0398 18.5228C15.9701 18.606 15.8805 18.6728 15.7809 18.716L14.4907 19.2752L14.8175 17.9075C14.8427 17.8019 14.8929 17.7021 14.9611 17.6208L15.2023 17.3354ZM17.1864 17.1646L16.1099 16.2613C16.2191 16.1321 19.752 11.9515 19.9963 11.6624L21.0706 12.5639L17.1864 17.1646ZM22.4301 10.9536L21.9778 11.4894L20.904 10.5884L21.3578 10.0513C21.6058 9.75586 22.0474 9.71733 22.3421 9.96464C22.6426 10.2168 22.6758 10.6608 22.4301 10.9536Z" fill="#3E3E46"/>
</svg>
